<mxfile host="65bd71144e">
    <diagram id="9fNrLUlPDjQ2bScBI6xr" name="ページ1">
        <mxGraphModel dx="616" dy="400" grid="1" gridSize="10" guides="1" tooltips="1" connect="1" arrows="1" fold="1" page="1" pageScale="1" pageWidth="827" pageHeight="1169" math="0" shadow="0">
            <root>
                <mxCell id="0"/>
                <mxCell id="1" parent="0"/>
                <mxCell id="4" value="Subnet Calculator" style="swimlane;" vertex="1" parent="1">
                    <mxGeometry x="20" y="20" width="520" height="390" as="geometry"/>
                </mxCell>
                <mxCell id="7" style="edgeStyle=none;html=1;exitX=1;exitY=0.5;exitDx=0;exitDy=0;entryX=0;entryY=0.25;entryDx=0;entryDy=0;" edge="1" parent="4" source="2" target="6">
                    <mxGeometry relative="1" as="geometry"/>
                </mxCell>
                <mxCell id="11" style="edgeStyle=none;html=1;exitX=1;exitY=0.5;exitDx=0;exitDy=0;entryX=0;entryY=0.5;entryDx=0;entryDy=0;" edge="1" parent="4" source="6" target="9">
                    <mxGeometry relative="1" as="geometry"/>
                </mxCell>
                <mxCell id="12" style="edgeStyle=none;html=1;exitX=1;exitY=0.5;exitDx=0;exitDy=0;entryX=0;entryY=0.5;entryDx=0;entryDy=0;" edge="1" parent="4" source="6" target="10">
                    <mxGeometry relative="1" as="geometry"/>
                </mxCell>
                <mxCell id="8" style="edgeStyle=none;html=1;exitX=1;exitY=0.5;exitDx=0;exitDy=0;entryX=0;entryY=0.5;entryDx=0;entryDy=0;" edge="1" parent="4" source="5" target="6">
                    <mxGeometry relative="1" as="geometry">
                        <mxPoint x="140" y="95" as="targetPoint"/>
                    </mxGeometry>
                </mxCell>
                <mxCell id="13" value="Input" style="swimlane;" vertex="1" parent="4">
                    <mxGeometry x="10" y="30" width="150" height="150" as="geometry"/>
                </mxCell>
                <mxCell id="2" value="stdin" style="whiteSpace=wrap;html=1;" vertex="1" parent="13">
                    <mxGeometry x="20" y="40" width="110" height="30" as="geometry"/>
                </mxCell>
                <mxCell id="5" value="file" style="whiteSpace=wrap;html=1;" vertex="1" parent="13">
                    <mxGeometry x="20" y="100" width="110" height="30" as="geometry"/>
                </mxCell>
                <mxCell id="16" value="Process" style="swimlane;" vertex="1" parent="4">
                    <mxGeometry x="185" y="30" width="150" height="150" as="geometry"/>
                </mxCell>
                <mxCell id="6" value="subcal.py" style="whiteSpace=wrap;html=1;" vertex="1" parent="16">
                    <mxGeometry x="20" y="100" width="110" height="30" as="geometry"/>
                </mxCell>
                <mxCell id="14" value="settings.yml" style="whiteSpace=wrap;html=1;" vertex="1" parent="16">
                    <mxGeometry x="20" y="40" width="110" height="30" as="geometry"/>
                </mxCell>
                <mxCell id="15" style="edgeStyle=none;html=1;exitX=0.5;exitY=1;exitDx=0;exitDy=0;entryX=0.5;entryY=0;entryDx=0;entryDy=0;" edge="1" parent="16" source="14" target="6">
                    <mxGeometry relative="1" as="geometry"/>
                </mxCell>
                <mxCell id="17" value="Output" style="swimlane;" vertex="1" parent="4">
                    <mxGeometry x="360" y="30" width="150" height="150" as="geometry"/>
                </mxCell>
                <mxCell id="9" value="stdout" style="whiteSpace=wrap;html=1;" vertex="1" parent="17">
                    <mxGeometry x="20" y="40" width="110" height="30" as="geometry"/>
                </mxCell>
                <mxCell id="10" value="file" style="whiteSpace=wrap;html=1;" vertex="1" parent="17">
                    <mxGeometry x="20" y="100" width="110" height="30" as="geometry"/>
                </mxCell>
                <mxCell id="20" value="Input Format" style="swimlane;" vertex="1" parent="4">
                    <mxGeometry x="10" y="200" width="150" height="180" as="geometry"/>
                </mxCell>
                <mxCell id="25" value="Common&lt;br style=&quot;font-size: 10px;&quot;&gt;x.x.x.x&lt;br style=&quot;font-size: 10px;&quot;&gt;x.x.x.x/x&lt;br style=&quot;font-size: 10px;&quot;&gt;x.x.x.x,x" style="text;html=1;align=left;verticalAlign=top;resizable=0;points=[];autosize=1;strokeColor=none;fillColor=none;fontSize=10;" vertex="1" parent="20">
                    <mxGeometry x="10" y="25" width="60" height="50" as="geometry"/>
                </mxCell>
                <mxCell id="27" value="stdin&lt;br style=&quot;font-size: 10px;&quot;&gt;x.x.x.x x.x.x.x (space)" style="text;html=1;align=left;verticalAlign=top;resizable=0;points=[];autosize=1;strokeColor=none;fillColor=none;fontSize=10;" vertex="1" parent="20">
                    <mxGeometry x="10" y="84" width="110" height="30" as="geometry"/>
                </mxCell>
                <mxCell id="28" value="file&lt;br&gt;x.x.x.x&lt;br&gt;x.x.x.x&lt;br&gt;x.x.x.x x.x.x.x (space or \n)" style="text;html=1;align=left;verticalAlign=top;resizable=0;points=[];autosize=1;strokeColor=none;fillColor=none;fontSize=10;" vertex="1" parent="20">
                    <mxGeometry x="10" y="120" width="130" height="50" as="geometry"/>
                </mxCell>
                <mxCell id="21" value="Settings" style="swimlane;" vertex="1" parent="4">
                    <mxGeometry x="185" y="200" width="150" height="184" as="geometry"/>
                </mxCell>
                <mxCell id="29" value="output colomun&lt;br&gt;" style="text;html=1;align=left;verticalAlign=top;resizable=0;points=[];autosize=1;strokeColor=none;fillColor=none;fontSize=10;" vertex="1" parent="21">
                    <mxGeometry x="15" y="24" width="80" height="20" as="geometry"/>
                </mxCell>
                <mxCell id="30" value="output:&lt;br&gt;&amp;nbsp; filename:&lt;br&gt;&amp;nbsp; column:&lt;br&gt;&amp;nbsp; &amp;nbsp; networkaddr:&lt;br&gt;&amp;nbsp; &amp;nbsp; networkprefix:&lt;br&gt;&amp;nbsp; &amp;nbsp; custom:&lt;br&gt;&amp;nbsp; &amp;nbsp; &amp;nbsp; - name&lt;br&gt;&amp;nbsp; &amp;nbsp; &amp;nbsp; - from_the_last:&lt;br&gt;&amp;nbsp; &amp;nbsp; &amp;nbsp; - from_the_first:&lt;br&gt;&amp;nbsp; &amp;nbsp;&amp;nbsp;&lt;br&gt;&amp;nbsp;&amp;nbsp;" style="text;html=1;align=left;verticalAlign=top;resizable=0;points=[];autosize=1;strokeColor=none;fillColor=none;fontSize=10;" vertex="1" parent="21">
                    <mxGeometry x="15" y="44" width="100" height="140" as="geometry"/>
                </mxCell>
                <mxCell id="22" value="Output Format" style="swimlane;" vertex="1" parent="4">
                    <mxGeometry x="360" y="200" width="160" height="180" as="geometry"/>
                </mxCell>
                <mxCell id="31" value="Output&lt;br&gt;column(header) from settings&lt;br&gt;&lt;br&gt;File&lt;br&gt;- CSV&lt;br&gt;&lt;br&gt;stdout&lt;br&gt;- table" style="text;html=1;align=left;verticalAlign=top;resizable=0;points=[];autosize=1;strokeColor=none;fillColor=none;fontSize=10;" vertex="1" parent="22">
                    <mxGeometry x="10" y="24" width="150" height="100" as="geometry"/>
                </mxCell>
            </root>
        </mxGraphModel>
    </diagram>
</mxfile>